# xmcd
#
# Track frame offsets:
#	150
#	15327
#	33911
#	48607
#	66914
#	83542
#	100055
#	116416
#	138675
#	151618
#	170748
#	193801
#	212358
#	229593
#
# Disc length: 3320 seconds
#
# Revision: 1
# Processed by: cddbd v1.5.2PL0 Copyright (c) Steve Scherf et al.
# Submitted via: audiograbber 1.83.01
#
DISCID=ad0cf60e
DTITLE=Henrik Bank -  The Journey
DYEAR=2016
DGENRE=Country
TTITLE0=A Good Thing Going On
TTITLE1=Why
TTITLE2=Daddy's Eyes
TTITLE3=Need You Tonight
TTITLE4=You By My Side
TTITLE5=Don't Believe In Yesterday
TTITLE6=Life Is Just What You Do
TTITLE7=So Many Things Undone
TTITLE8=Honey I Know
TTITLE9=In My Heart
TTITLE10=Live For Today
TTITLE11=Stay Another Night
TTITLE12=I Would Still Hold On
TTITLE13=She
EXTD=
EXTT0=
EXTT1=
EXTT2=
EXTT3=
EXTT4=
EXTT5=
EXTT6=
EXTT7=
EXTT8=
EXTT9=
EXTT10=
EXTT11=
EXTT12=
EXTT13=
PLAYORDER=
